<svg xmlns="http://www.w3.org/2000/svg" width="512" height="512" viewBox="0 0 512 512">
  <defs>
    <linearGradient id="g" x1="0" y1="0" x2="1" y2="1">
      <stop offset="0" stop-color="#2f9e6f"/>
      <stop offset="1" stop-color="#0f3d2e"/>
    </linearGradient>
  </defs>
  <rect width="512" height="512" rx="112" fill="url(#g)"/>
  <!-- stem -->
  <path d="M256 392 C256 300 256 232 256 176" stroke="#f7eccd" stroke-width="22" stroke-linecap="round" fill="none"/>
  <!-- leaves growing upward (See / Grow / Multiply) -->
  <path d="M256 300 C300 296 336 264 340 220 C296 224 260 256 256 300 Z" fill="#d6a93f"/>
  <path d="M256 248 C212 244 176 212 172 168 C216 172 252 204 256 248 Z" fill="#e3f3ea"/>
  <path d="M256 196 C300 192 336 160 340 116 C296 120 260 152 256 196 Z" fill="#d6a93f"/>
  <circle cx="256" cy="160" r="20" fill="#f7eccd"/>
</svg>
